<?xml version="1.0" encoding="utf-8"?>
<!-- Generator: Adobe Illustrator 17.0.2, SVG Export Plug-In . SVG Version: 6.00 Build 0)  -->
<!DOCTYPE svg PUBLIC "-//W3C//DTD SVG 1.1 Tiny//EN" "http://www.w3.org/Graphics/SVG/1.1/DTD/svg11-tiny.dtd">
<svg version="1.1" baseProfile="tiny" xmlns="http://www.w3.org/2000/svg" xmlns:xlink="http://www.w3.org/1999/xlink" x="0px"
	 y="0px" width="203.38px" height="69.08px" viewBox="0 0 203.38 69.08" xml:space="preserve">
<g id="bg" display="none">
	<rect y="-0.5" display="inline" width="203.375" height="69.125"/>
</g>
<g id="USD">
	<g>
		<path fill="#FFFFFF" d="M13.505,58.308c0-1.325-0.043-3.784-0.414-4.426c-0.152-0.256-0.544-0.406-1.089-0.448l-0.544-0.043
			c-0.13-0.149-0.087-0.428,0.044-0.513c0.827,0.042,1.633,0.063,2.482,0.063c0.915,0,1.502-0.021,2.287-0.063
			c0.174,0.106,0.152,0.385,0.043,0.513l-0.522,0.043c-0.544,0.042-0.958,0.234-1.089,0.513c-0.305,0.705-0.305,3.164-0.305,4.361
			v2.415c0,1.86-0.305,3.827-1.524,5.109c-0.937,1.005-2.547,1.561-4.159,1.561c-1.502,0-3.005-0.277-4.072-1.176
			c-1.154-0.94-1.699-2.501-1.699-5.045v-5.045c0-2.224-0.043-2.587-1.306-2.693l-0.544-0.043c-0.131-0.086-0.087-0.449,0.043-0.513
			c1.089,0.042,1.829,0.063,2.7,0.063c0.893,0,1.611-0.021,2.678-0.063c0.13,0.063,0.174,0.427,0.043,0.513l-0.522,0.043
			c-1.263,0.106-1.307,0.47-1.307,2.693v4.617c0,3.442,1.089,5.708,4.42,5.708c3.158,0,4.355-2.437,4.355-5.687V58.308z"/>
		<path fill="#FFFFFF" d="M18.163,60.915c0-0.833,0-0.94-0.588-1.325l-0.196-0.128c-0.087-0.086-0.087-0.321,0.021-0.385
			c0.501-0.171,1.742-0.727,2.178-1.048c0.087,0,0.196,0.043,0.239,0.149c-0.043,0.492-0.043,0.812-0.043,1.005
			c0,0.129,0.087,0.235,0.24,0.235c0.915-0.556,1.938-1.09,3.048-1.09c1.807,0,2.547,1.218,2.547,2.65v3.677
			c0,1.539,0.043,1.753,0.828,1.86l0.479,0.063c0.152,0.107,0.109,0.471-0.043,0.535c-0.653-0.043-1.285-0.064-2.047-0.064
			c-0.784,0-1.437,0.021-2.025,0.064c-0.153-0.064-0.196-0.428-0.044-0.535l0.414-0.063c0.806-0.129,0.827-0.321,0.827-1.86v-3.185
			c0-1.219-0.566-2.117-2.046-2.117c-0.828,0-1.546,0.343-1.851,0.749c-0.283,0.363-0.327,0.662-0.327,1.282v3.271
			c0,1.539,0.043,1.731,0.828,1.86l0.392,0.063c0.153,0.107,0.109,0.471-0.043,0.535c-0.588-0.043-1.219-0.064-1.981-0.064
			c-0.784,0-1.437,0.021-2.047,0.064c-0.152-0.064-0.196-0.428-0.043-0.535l0.458-0.063c0.806-0.107,0.827-0.321,0.827-1.86V60.915z
			"/>
		<path fill="#FFFFFF" d="M29.701,60.915c0-0.833,0-0.94-0.588-1.325l-0.196-0.128c-0.087-0.086-0.087-0.321,0.021-0.385
			c0.501-0.171,1.742-0.727,2.243-1.048c0.109,0,0.196,0.043,0.218,0.129c-0.044,0.748-0.087,1.773-0.087,2.65v3.848
			c0,1.539,0.043,1.753,0.828,1.86l0.457,0.063c0.152,0.107,0.109,0.471-0.043,0.535c-0.653-0.043-1.285-0.064-2.047-0.064
			c-0.784,0-1.437,0.021-2.047,0.064c-0.152-0.064-0.196-0.428-0.043-0.535l0.458-0.063c0.806-0.107,0.827-0.321,0.827-1.86V60.915z
			 M31.508,54.823c0,0.77-0.544,1.111-1.154,1.111c-0.675,0-1.11-0.492-1.11-1.069c0-0.705,0.522-1.154,1.176-1.154
			S31.508,54.225,31.508,54.823z"/>
		<path fill="#FFFFFF" d="M35.339,60.146c0-0.577,0-0.62-0.435-0.62h-0.762c-0.131-0.085-0.152-0.277-0.065-0.405l0.937-0.449
			c0.174-0.086,0.326-0.214,0.326-0.428c0-1.219,0.174-2.458,0.675-3.592c0.457-1.09,1.786-2.886,4.224-2.886
			c1.48,0,2.7,0.77,2.7,1.668c0,0.641-0.566,0.876-0.893,0.876c-0.305,0-0.457-0.149-0.566-0.32
			c-0.631-1.048-1.481-1.411-2.047-1.411c-1.698,0-2.482,1.839-2.482,5.152v0.234c0,0.535,0.044,0.663,0.414,0.663h2.438
			c0.958,0,2.33-0.106,2.853-0.299c0.087,0,0.174,0.042,0.218,0.106c-0.043,0.77-0.087,1.796-0.087,2.672v3.549
			c0,1.539,0.044,1.753,0.828,1.86l0.457,0.063c0.153,0.107,0.109,0.471-0.043,0.535c-0.653-0.043-1.285-0.064-2.046-0.064
			c-0.784,0-1.438,0.021-2.047,0.064c-0.152-0.064-0.196-0.428-0.044-0.535l0.458-0.063c0.806-0.107,0.828-0.321,0.828-1.86v-3.72
			c0-1.304-0.153-1.411-1.089-1.411h-2.722c-0.37,0-0.414,0.15-0.414,0.663v4.468c0,1.539,0.044,1.796,0.828,1.86l0.697,0.063
			c0.152,0.107,0.109,0.471-0.043,0.535c-0.893-0.043-1.524-0.064-2.287-0.064c-0.784,0-1.437,0.021-2.09,0.064
			c-0.152-0.064-0.196-0.428-0.043-0.535l0.501-0.063c0.806-0.107,0.827-0.321,0.827-1.86V60.146z"/>
		<path fill="#FFFFFF" d="M47.575,61.578c-0.566,0-0.588,0.043-0.588,0.577c0,2.159,1.285,3.998,3.615,3.998
			c0.718,0,1.328-0.214,2.003-1.048c0.218-0.064,0.37,0.064,0.392,0.257c-0.719,1.453-2.286,1.987-3.418,1.987
			c-1.416,0-2.526-0.598-3.157-1.41c-0.653-0.834-0.915-1.839-0.915-2.779c0-2.63,1.764-4.831,4.376-4.831
			c1.873,0,3.092,1.261,3.092,2.544c0,0.299-0.043,0.47-0.087,0.556c-0.065,0.128-0.37,0.149-1.285,0.149H47.575z M48.925,60.937
			c1.611,0,2.09-0.085,2.265-0.214c0.065-0.042,0.13-0.128,0.13-0.406c0-0.598-0.414-1.347-1.676-1.347
			c-1.285,0-2.396,1.154-2.417,1.86c0,0.043,0,0.106,0.152,0.106H48.925z"/>
		<path fill="#FFFFFF" d="M62.707,63.93c0,1.688,0.021,2.479,0.631,2.479c0.24,0,0.61-0.106,0.936-0.214
			c0.153,0.043,0.174,0.577-0.021,0.685c-0.915,0.128-2.265,0.449-2.874,0.684c-0.131,0-0.24-0.063-0.24-0.171v-0.363
			c0-0.32,0-0.577-0.043-0.662h-0.087c-0.958,0.641-1.698,0.982-2.743,0.982c-2.417,0-4.028-1.859-4.028-4.104
			c0-2.992,2.308-4.916,5.269-4.916c0.741,0,1.22,0.106,1.459,0.192c0.109,0,0.131-0.129,0.131-0.3v-3.228
			c0-1.262-0.022-1.39-0.675-1.774l-0.218-0.129c-0.109-0.063-0.109-0.363,0-0.427c0.544-0.172,1.568-0.492,2.352-0.898
			c0.087,0,0.174,0.043,0.218,0.129c-0.022,0.641-0.065,1.71-0.065,2.65V63.93z M61.095,60.723c0-0.427-0.087-0.619-0.24-0.833
			c-0.327-0.449-0.979-0.898-1.829-0.898c-1.981,0-3.005,1.689-3.005,3.549c0,1.945,1.111,3.784,3.245,3.784
			c0.588,0,1.328-0.257,1.677-0.599c0.13-0.129,0.152-0.449,0.152-0.791V60.723z"/>
		<path fill="#FFFFFF" d="M75.964,67.393c-1.829,0-2.983-0.556-3.397-0.791c-0.261-0.47-0.544-1.988-0.588-2.992
			c0.109-0.15,0.436-0.192,0.523-0.064c0.326,1.09,1.219,3.186,3.745,3.186c1.829,0,2.722-1.176,2.722-2.459
			c0-0.94-0.196-1.988-1.786-2.992l-2.068-1.326c-1.089-0.705-2.352-1.924-2.352-3.677c0-2.03,1.611-3.677,4.442-3.677
			c0.675,0,1.459,0.128,2.025,0.278c0.283,0.085,0.588,0.128,0.762,0.128c0.196,0.513,0.392,1.71,0.392,2.608
			c-0.087,0.128-0.436,0.192-0.544,0.063c-0.283-1.026-0.871-2.415-2.961-2.415c-2.134,0-2.591,1.389-2.591,2.372
			c0,1.24,1.045,2.138,1.851,2.63l1.742,1.068c1.372,0.834,2.722,2.074,2.722,4.104C80.602,65.789,78.795,67.393,75.964,67.393z"/>
		<path fill="#FFFFFF" d="M89.833,58.692c0.174,0.149,0.327,0.491,0.327,0.854c0,0.385-0.218,0.791-0.479,0.791
			c-0.109,0-0.218-0.042-0.305-0.149c-0.479-0.577-1.285-1.133-2.177-1.133c-1.524,0-3.005,1.176-3.005,3.441
			c0,1.668,1.176,3.656,3.506,3.656c1.263,0,1.916-0.557,2.417-1.283c0.174-0.043,0.37,0.107,0.392,0.3
			c-0.74,1.582-2.373,2.18-3.636,2.18c-1.154,0-2.221-0.363-2.983-1.09s-1.263-1.774-1.263-3.164c0-2.309,1.655-4.767,5.27-4.767
			C88.396,58.329,89.245,58.436,89.833,58.692z"/>
		<path fill="#FFFFFF" d="M92.575,54.994c0-1.262-0.021-1.39-0.675-1.774l-0.218-0.129c-0.109-0.063-0.109-0.363,0-0.427
			c0.544-0.172,1.568-0.492,2.352-0.898c0.087,0,0.174,0.043,0.218,0.129c-0.022,0.641-0.065,1.71-0.065,2.65v4.489
			c0,0.192,0.022,0.363,0.087,0.406c0.784-0.599,1.829-1.111,2.939-1.111c2.068,0,2.809,1.261,2.809,2.758v3.569
			c0,1.539,0.043,1.774,0.828,1.86l0.588,0.063c0.152,0.107,0.108,0.471-0.044,0.535c-0.784-0.043-1.416-0.064-2.178-0.064
			c-0.784,0-1.437,0.021-2.025,0.064c-0.152-0.064-0.196-0.428-0.043-0.535l0.436-0.063c0.806-0.129,0.827-0.321,0.827-1.86V61.6
			c0-1.368-0.675-2.287-2.068-2.287c-0.74,0-1.307,0.256-1.698,0.577c-0.392,0.32-0.458,0.427-0.458,1.176v3.591
			c0,1.539,0.043,1.753,0.828,1.86l0.457,0.063c0.152,0.086,0.109,0.471-0.043,0.535c-0.653-0.043-1.285-0.064-2.047-0.064
			c-0.784,0-1.437,0.021-2.134,0.064c-0.152-0.064-0.196-0.428-0.043-0.535l0.544-0.063c0.806-0.086,0.827-0.321,0.827-1.86V54.994z
			"/>
		<path fill="#FFFFFF" d="M111.801,62.754c0,2.672-1.873,4.596-4.595,4.596c-2.504,0-4.464-1.731-4.464-4.403
			c0-2.693,2.069-4.617,4.639-4.617C109.819,58.329,111.801,60.124,111.801,62.754z M107.119,58.97
			c-1.438,0-2.504,1.347-2.504,3.698c0,1.945,0.893,4.041,2.809,4.041s2.504-1.967,2.504-3.613
			C109.928,61.279,109.188,58.97,107.119,58.97z"/>
		<path fill="#FFFFFF" d="M122.49,62.754c0,2.672-1.873,4.596-4.595,4.596c-2.504,0-4.464-1.731-4.464-4.403
			c0-2.693,2.069-4.617,4.639-4.617C120.509,58.329,122.49,60.124,122.49,62.754z M117.809,58.97c-1.438,0-2.504,1.347-2.504,3.698
			c0,1.945,0.893,4.041,2.809,4.041s2.504-1.967,2.504-3.613C120.617,61.279,119.877,58.97,117.809,58.97z"/>
		<path fill="#FFFFFF" d="M126.887,64.656c0,1.539,0.044,1.753,0.827,1.86l0.522,0.063c0.153,0.107,0.109,0.471-0.043,0.535
			c-0.719-0.043-1.35-0.064-2.112-0.064c-0.784,0-1.437,0.021-2.09,0.064c-0.152-0.064-0.196-0.428-0.044-0.535l0.501-0.063
			c0.806-0.107,0.827-0.321,0.827-1.86v-9.662c0-1.262-0.021-1.39-0.675-1.774l-0.218-0.129c-0.109-0.063-0.109-0.363,0-0.427
			c0.544-0.172,1.567-0.492,2.352-0.898c0.087,0,0.174,0.043,0.218,0.129c-0.021,0.641-0.065,1.71-0.065,2.65V64.656z"/>
		<path fill="#FFFFFF" d="M137.62,55.721c0-1.496-0.108-1.945-1.023-2.073l-0.479-0.064c-0.175-0.107-0.196-0.449,0.021-0.534
			c1.851-0.107,3.614-0.171,5.465-0.171c1.829,0,3.375,0.128,4.791,0.641c2.939,1.048,4.42,3.484,4.42,6.307
			c0,2.715-1.328,5.045-3.811,6.37c-1.415,0.749-3.201,1.026-4.878,1.026c-1.394,0-2.787-0.171-3.549-0.171
			c-0.914,0-1.698,0.021-2.722,0.064c-0.131-0.064-0.174-0.406-0.044-0.535l0.501-0.063c1.263-0.171,1.307-0.428,1.307-2.673V55.721
			z M139.405,63.353c0,1.133,0.065,1.817,0.436,2.33c0.479,0.663,1.307,0.877,2.679,0.877c4.224,0,6.118-2.716,6.118-6.691
			c0-2.352-1.154-6.328-6.858-6.328c-1.285,0-1.981,0.171-2.156,0.3c-0.174,0.128-0.218,0.662-0.218,1.624V63.353z"/>
		<path fill="#FFFFFF" d="M154.057,60.915c0-0.833,0-0.94-0.588-1.325l-0.196-0.128c-0.087-0.086-0.087-0.321,0.022-0.385
			c0.501-0.171,1.741-0.727,2.242-1.048c0.109,0,0.196,0.043,0.218,0.129c-0.043,0.748-0.087,1.773-0.087,2.65v3.848
			c0,1.539,0.044,1.753,0.827,1.86l0.458,0.063c0.152,0.107,0.108,0.471-0.044,0.535c-0.653-0.043-1.285-0.064-2.047-0.064
			c-0.784,0-1.438,0.021-2.047,0.064c-0.152-0.064-0.196-0.428-0.043-0.535l0.457-0.063c0.806-0.107,0.827-0.321,0.827-1.86V60.915z
			 M155.864,54.823c0,0.77-0.545,1.111-1.154,1.111c-0.675,0-1.11-0.492-1.11-1.069c0-0.705,0.522-1.154,1.176-1.154
			S155.864,54.225,155.864,54.823z"/>
		<path fill="#FFFFFF" d="M163.593,58.714c0.196,0.47,0.349,1.154,0.349,1.731c-0.087,0.149-0.414,0.192-0.522,0.063
			c-0.37-0.94-1.023-1.561-1.916-1.561c-0.85,0-1.394,0.535-1.394,1.305c0,0.876,0.914,1.347,1.677,1.774
			c1.153,0.641,2.221,1.368,2.221,2.886c0,1.625-1.524,2.437-3.136,2.437c-1.023,0-1.785-0.213-2.33-0.641
			c-0.174-0.406-0.305-1.454-0.261-2.159c0.108-0.129,0.392-0.149,0.501-0.021c0.37,1.176,1.066,2.202,2.308,2.202
			c0.784,0,1.459-0.449,1.459-1.368c0-0.983-0.871-1.519-1.677-1.967c-1.263-0.706-2.155-1.454-2.155-2.63
			c0-1.561,1.307-2.437,2.961-2.437C162.592,58.329,163.397,58.543,163.593,58.714z"/>
		<path fill="#FFFFFF" d="M168.687,59.525c-0.37,0-0.392,0.064-0.392,0.514v3.997c0,1.24,0.152,2.373,1.59,2.373
			c0.218,0,0.413-0.042,0.588-0.106c0.195-0.064,0.479-0.3,0.544-0.3c0.175,0,0.262,0.235,0.218,0.364
			c-0.392,0.448-1.176,0.982-2.286,0.982c-1.873,0-2.265-1.025-2.265-2.309v-4.896c0-0.577-0.021-0.62-0.457-0.62h-0.609
			c-0.131-0.085-0.152-0.32-0.065-0.448c0.631-0.192,1.176-0.471,1.394-0.663c0.283-0.256,0.696-0.834,0.914-1.261
			c0.109-0.043,0.37-0.043,0.457,0.106v0.962c0,0.385,0.022,0.406,0.393,0.406h2.417c0.261,0.192,0.218,0.77,0.021,0.897H168.687z"
			/>
		<path fill="#FFFFFF" d="M173.693,60.915c0-0.833,0-0.94-0.588-1.325l-0.196-0.128c-0.087-0.086-0.087-0.321,0.022-0.385
			c0.501-0.171,1.654-0.727,2.199-1.048c0.108,0.021,0.174,0.064,0.174,0.149v1.24c0,0.106,0.021,0.171,0.065,0.192
			c0.762-0.62,1.59-1.282,2.396-1.282c0.544,0,0.979,0.342,0.979,0.854c0,0.706-0.588,0.983-0.937,0.983
			c-0.218,0-0.326-0.063-0.479-0.149c-0.327-0.214-0.653-0.342-0.958-0.342c-0.349,0-0.61,0.192-0.784,0.428
			c-0.218,0.299-0.283,0.919-0.283,1.646v2.907c0,1.539,0.044,1.796,0.871,1.86l0.784,0.063c0.152,0.107,0.108,0.471-0.044,0.535
			c-1.023-0.043-1.655-0.064-2.417-0.064c-0.784,0-1.438,0.021-2.003,0.064c-0.152-0.064-0.196-0.428-0.044-0.535l0.414-0.063
			c0.806-0.129,0.827-0.321,0.827-1.86V60.915z"/>
		<path fill="#FFFFFF" d="M181.03,60.915c0-0.833,0-0.94-0.588-1.325l-0.196-0.128c-0.087-0.086-0.087-0.321,0.022-0.385
			c0.501-0.171,1.741-0.727,2.242-1.048c0.109,0,0.196,0.043,0.218,0.129c-0.043,0.748-0.087,1.773-0.087,2.65v3.848
			c0,1.539,0.044,1.753,0.827,1.86l0.458,0.063c0.152,0.107,0.108,0.471-0.044,0.535c-0.653-0.043-1.285-0.064-2.047-0.064
			c-0.784,0-1.438,0.021-2.047,0.064c-0.152-0.064-0.195-0.428-0.043-0.535l0.457-0.063c0.806-0.107,0.827-0.321,0.827-1.86V60.915z
			 M182.838,54.823c0,0.77-0.545,1.111-1.154,1.111c-0.675,0-1.11-0.492-1.11-1.069c0-0.705,0.522-1.154,1.176-1.154
			S182.838,54.225,182.838,54.823z"/>
		<path fill="#FFFFFF" d="M192.592,58.692c0.174,0.149,0.326,0.491,0.326,0.854c0,0.385-0.218,0.791-0.479,0.791
			c-0.109,0-0.218-0.042-0.305-0.149c-0.479-0.577-1.285-1.133-2.178-1.133c-1.524,0-3.005,1.176-3.005,3.441
			c0,1.668,1.176,3.656,3.506,3.656c1.263,0,1.916-0.557,2.417-1.283c0.174-0.043,0.37,0.107,0.392,0.3
			c-0.74,1.582-2.373,2.18-3.636,2.18c-1.154,0-2.222-0.363-2.983-1.09s-1.263-1.774-1.263-3.164c0-2.309,1.654-4.767,5.27-4.767
			C191.154,58.329,192.004,58.436,192.592,58.692z"/>
		<path fill="#FFFFFF" d="M197.336,59.525c-0.37,0-0.392,0.064-0.392,0.514v3.997c0,1.24,0.152,2.373,1.59,2.373
			c0.218,0,0.413-0.042,0.588-0.106c0.195-0.064,0.479-0.3,0.544-0.3c0.175,0,0.262,0.235,0.218,0.364
			c-0.392,0.448-1.176,0.982-2.286,0.982c-1.873,0-2.265-1.025-2.265-2.309v-4.896c0-0.577-0.021-0.62-0.457-0.62h-0.609
			c-0.131-0.085-0.153-0.32-0.065-0.448c0.631-0.192,1.176-0.471,1.394-0.663c0.283-0.256,0.696-0.834,0.914-1.261
			c0.109-0.043,0.37-0.043,0.457,0.106v0.962c0,0.385,0.022,0.406,0.393,0.406h2.417c0.261,0.192,0.218,0.77,0.021,0.897H197.336z"
			/>
	</g>
</g>
<g id="Palo_Alto">
	<g>
		<path fill="#FFFFFF" d="M1.365,2.372c0.372-0.06,0.609-0.09,0.713-0.09c0.703,0,1.861,0.041,3.474,0.121
			c0.848,0.021,1.427,0.03,1.737,0.03c0.455,0,1.416-0.04,2.884-0.121l5.272-0.302c1.385-0.121,2.998-0.181,4.838-0.181
			c3.246,0,5.83,0.447,7.753,1.341s3.406,2.295,4.451,4.204c1.043,1.908,1.566,3.807,1.566,5.695c0,3.154-1.137,5.876-3.412,8.167
			s-5.334,3.435-9.18,3.435c-1.075,0-1.975-0.105-2.698-0.317c-0.724-0.211-1.551-0.618-2.481-1.222
			c-0.393-0.261-0.631-0.533-0.713-0.815c0.083-0.141,0.196-0.241,0.341-0.302c0.289,0,0.589,0.061,0.899,0.181
			c0.703,0.241,1.592,0.362,2.667,0.362c1.633,0,3.179-0.391,4.636-1.175c1.458-0.783,2.559-1.898,3.303-3.344
			c0.744-1.446,1.117-2.973,1.117-4.58c0-1.566-0.392-3.088-1.176-4.564c-0.784-1.476-1.816-2.656-3.095-3.54
			c-0.722-0.502-1.832-0.924-3.327-1.265c-1.497-0.341-2.657-0.513-3.482-0.513c-2.559,0-4.075,0.181-4.549,0.543L12.87,4.544
			l0.093,3.407l-0.031,0.604c-0.042,0.543-0.062,1.377-0.062,2.502c0,4.101,0.062,6.653,0.186,7.658v1.688l0.403,13.778
			c0,0.201-0.026,0.573-0.078,1.116c-0.052,0.543-0.078,1.015-0.078,1.417c0,0.965,0.083,1.698,0.248,2.2
			c0.497,0.141,1.943,0.473,4.342,0.995c1.117,0.262,1.726,0.413,1.83,0.453c0.165,0.06,0.31,0.191,0.434,0.392
			c-0.083,0.302-0.191,0.498-0.326,0.589c-0.135,0.091-0.398,0.136-0.791,0.136c-0.248,0-0.827-0.051-1.736-0.15
			c-1.778-0.182-3.174-0.272-4.187-0.272L7.66,41.269l-3.256-0.091c-0.207,0-0.806,0.02-1.799,0.061l-0.031-0.785l4.031-0.754
			c0.662-0.181,1.065-0.361,1.209-0.542c0.207-0.281,0.311-0.834,0.311-1.658c0-0.181,0.01-0.573,0.031-1.177
			c0.021-0.422,0.031-1.004,0.031-1.749c0-2.371-0.104-7.426-0.311-15.165c-0.083-3.618-0.124-7.296-0.124-11.035V7.86
			c0-1.447-0.228-2.362-0.682-2.744C6.306,4.454,4.393,3.911,1.333,3.489C1.23,3.268,1.179,3.086,1.179,2.945
			C1.179,2.785,1.241,2.594,1.365,2.372z"/>
		<path fill="#FFFFFF" d="M55.287,36.772c0.124,0.262,0.186,0.452,0.186,0.573c0,0.302-0.248,0.835-0.745,1.599
			c-0.641,1.007-1.354,1.74-2.14,2.203c-0.496,0.302-1.179,0.453-2.047,0.453c-1.489,0-2.605-0.443-3.349-1.328
			c-0.455-0.522-0.775-1.458-0.961-2.807l-3.474,2.354c-1.22,0.685-2.15,1.117-2.791,1.298c-1.034,0.262-2.274,0.393-3.722,0.393
			c-1.054,0-1.887-0.307-2.497-0.921c-0.61-0.613-0.915-1.402-0.915-2.368c0-1.389,0.875-3.048,2.626-4.979
			c1.751-1.932,4.129-3.51,7.134-4.738c2.114-0.865,3.408-1.418,3.885-1.66c0.041-0.664,0.062-1.388,0.062-2.173
			c0-2.554-0.368-4.285-1.104-5.19s-1.789-1.358-3.157-1.358c-1.432,0-2.769,0.543-4.013,1.629
			c-0.768,0.684-1.348,1.972-1.742,3.862c-0.124,0.523-0.362,1.086-0.713,1.69c-0.889,0.563-1.603,0.845-2.14,0.845
			c-0.455,0-0.869-0.131-1.241-0.393c-0.207-0.141-0.31-0.302-0.31-0.483c0-0.522,0.574-1.705,1.721-3.545s2.594-3.218,4.342-4.134
			c1.747-0.915,3.272-1.373,4.574-1.373c1.778,0,3.101,0.156,3.97,0.468c0.868,0.312,1.633,0.86,2.295,1.645
			c0.661,0.785,1.064,1.64,1.209,2.565c0.083,0.443,0.124,2.022,0.124,4.738l-0.093,4.798l0.031,3.5
			c0,0.463-0.011,0.855-0.031,1.177c-0.021,0.584-0.031,1.017-0.031,1.298c0,0.664,0.196,1.197,0.589,1.599
			c0.392,0.403,0.857,0.604,1.396,0.604c0.785,0,1.458-0.382,2.016-1.146l0.372-0.482C54.708,36.923,54.935,36.853,55.287,36.772z
			 M46.2,35.897c0.145-2.554,0.218-4.354,0.218-5.4c0-0.543-0.031-1.277-0.093-2.203c-1.39,0.483-2.863,1.218-4.419,2.203
			s-2.79,2.122-3.703,3.409c-0.664,0.926-0.996,1.801-0.996,2.625c0,0.785,0.275,1.438,0.825,1.962s1.24,0.784,2.069,0.784
			c0.643,0,1.421-0.221,2.334-0.664C43.637,38.029,44.893,37.124,46.2,35.897z"/>
		<path fill="#FFFFFF" d="M56.669,3.489V2.825c0.579-0.181,1.22-0.372,1.923-0.573c1.039-0.322,2.576-0.815,4.613-1.479h1.465
			c0,0.966,0,1.52,0,1.661c0,16.529-0.052,26.384-0.155,29.564c-0.062,1.873-0.093,2.869-0.093,2.99
			c0,2.254,0.093,3.513,0.279,3.774c0.248,0.362,1.008,0.614,2.279,0.755c1.271,0.142,2.021,0.282,2.249,0.423
			c0.165,0.081,0.248,0.222,0.248,0.423c0,0.222-0.046,0.377-0.14,0.468c-0.093,0.09-0.264,0.136-0.512,0.136
			c-0.145,0-1.23-0.035-3.256-0.104l-4.062-0.138l-5.21,0.241c-0.331,0.02-0.579-0.042-0.745-0.187
			c-0.124-0.103-0.186-0.247-0.186-0.433c0-0.206,0.067-0.355,0.202-0.448c0.134-0.094,0.878-0.25,2.233-0.472
			c1.354-0.222,2.129-0.407,2.326-0.559c0.196-0.15,0.326-0.487,0.388-1.011c0.083-0.725,0.124-2.766,0.124-6.125l-0.031-6.94
			l0.093-7.182l-0.031-7.182l0.093-3.531c0-0.704-0.114-1.211-0.341-1.524c-0.228-0.312-0.713-0.619-1.458-0.92
			C57.848,4.012,57.083,3.69,56.669,3.489z"/>
		<path fill="#FFFFFF" d="M68.702,28.746c0-1.368,0.295-2.831,0.884-4.391c0.589-1.559,1.483-2.957,2.683-4.194
			c1.199-1.237,2.47-2.157,3.814-2.761c1.881-0.845,4.176-1.268,6.885-1.268c3.866,0,7.096,1.288,9.691,3.862
			c2.594,2.576,3.892,5.673,3.892,9.294c0,3.219-1.36,6.09-4.078,8.614c-2.719,2.525-6.156,3.787-10.312,3.787
			c-2.563,0-4.982-0.653-7.257-1.961c-1.695-0.985-3.153-2.444-4.373-4.376C69.312,33.423,68.702,31.22,68.702,28.746z
			 M82.425,40.514c1.574,0,3.091-0.412,4.551-1.237c1.46-0.824,2.625-2.146,3.495-3.968c0.87-1.82,1.305-3.927,1.305-6.321
			c0-1.569-0.337-3.39-1.01-5.462c-0.673-2.072-1.708-3.626-3.106-4.662s-3.039-1.554-4.924-1.554c-1.367,0-2.759,0.312-4.178,0.936
			c-1.419,0.624-2.62,1.821-3.604,3.591c-0.983,1.771-1.475,4.285-1.475,7.544c0,3.662,0.854,6.432,2.562,8.313
			C77.75,39.573,79.877,40.514,82.425,40.514z"/>
		<path fill="#FFFFFF" d="M101.681,39.91c0.291-0.16,0.548-0.241,0.775-0.241h0.714c0.144,0,0.392-0.01,0.743-0.03
			c1.592-0.141,2.531-0.281,2.821-0.423c0.723-0.382,1.344-1.045,1.859-1.991c1.076-2.052,2.286-4.958,3.63-8.72
			c0.641-1.79,1.044-2.876,1.21-3.259c0.517-1.207,1.014-2.475,1.489-3.802l2.915-7.937c0.455-1.247,1.552-4.104,3.289-8.57
			c0.434-1.126,0.961-2.635,1.582-4.526l0.913-0.06l1.084,0.03c0.888,1.71,1.673,3.551,2.354,5.522
			c0.371,1.046,0.98,2.605,1.827,4.677l4.708,12.402l2.51,6.729c1.322,3.822,2.191,6.17,2.604,7.045
			c0.414,0.875,0.796,1.454,1.147,1.735c0.104,0.08,0.491,0.201,1.163,0.362s1.143,0.281,1.411,0.361
			c0.951,0.262,1.612,0.483,1.985,0.664c0.082,0.222,0.124,0.393,0.124,0.514c0,0.101-0.031,0.251-0.094,0.452
			c-0.661,0.021-1.127,0.03-1.396,0.03c-1.054,0-2.915-0.03-5.582-0.091l-3.102-0.067l-3.752,0.045c-0.248,0-0.502-0.011-0.76-0.034
			c-0.259-0.022-0.48-0.033-0.667-0.033h-0.683c-0.228-0.021-0.434-0.08-0.62-0.182c0-0.281,0.052-0.553,0.155-0.814
			c0.248-0.121,0.476-0.191,0.683-0.211l3.255-0.212c0.847-0.04,1.488-0.151,1.923-0.333c0.124-0.362,0.186-0.634,0.186-0.815
			c0-0.363-0.269-1.301-0.807-2.812c-0.371-1.007-0.696-1.964-0.975-2.871c-0.279-0.907-1.379-3.89-3.299-8.949
			c-0.848-0.141-1.593-0.211-2.233-0.211l-6.637,0.06l-1.953-0.03c-0.703,0-1.479,0.051-2.326,0.151
			c-0.27,0.604-0.445,1.037-0.527,1.298l-2.733,8.298c-1.158,3.158-1.736,4.898-1.736,5.221c0,0.181,0.093,0.482,0.279,0.905
			c0.434,0.12,1.013,0.231,1.736,0.331l4.218,0.362c0.228,0.182,0.341,0.343,0.341,0.483c0,0.101-0.031,0.252-0.093,0.452
			c-0.931,0.021-1.644,0.03-2.14,0.03c-1.654,0-3.577-0.05-5.769-0.15c-1.014-0.04-1.737-0.061-2.171-0.061
			c-0.435,0-1.189,0.021-2.264,0.061c-0.703,0.04-1.21,0.06-1.52,0.06c-0.497,0-1.138-0.029-1.924-0.09v-0.182
			C101.557,40.343,101.599,40.151,101.681,39.91z M116.479,21.805c2.212,0.121,4.734,0.181,7.567,0.181
			c1.612,0,3.028-0.05,4.248-0.151c-0.206-0.784-0.444-1.518-0.712-2.202c-1.343-3.499-2.086-5.429-2.229-5.792l-2.819-6.968
			l-0.31-0.543c-0.124,0.241-0.58,1.277-1.366,3.106c-1.325,3.137-2.277,5.581-2.857,7.33c-0.27,0.784-0.549,1.563-0.839,2.337
			c-0.289,0.774-0.471,1.317-0.543,1.629c-0.072,0.312-0.182,0.629-0.326,0.95L116.479,21.805z"/>
		<path fill="#FFFFFF" d="M146.528,3.489V2.825c0.579-0.181,1.22-0.372,1.923-0.573c1.039-0.322,2.577-0.815,4.614-1.479h1.465
			c0,0.966,0,1.52,0,1.661c0,16.529-0.052,26.384-0.155,29.564c-0.062,1.873-0.093,2.869-0.093,2.99
			c0,2.254,0.093,3.513,0.278,3.774c0.248,0.362,1.008,0.614,2.279,0.755c1.272,0.142,2.021,0.282,2.249,0.423
			c0.165,0.081,0.248,0.222,0.248,0.423c0,0.222-0.047,0.377-0.14,0.468c-0.093,0.09-0.264,0.136-0.512,0.136
			c-0.145,0-1.23-0.035-3.256-0.104l-4.063-0.138l-5.21,0.241c-0.331,0.02-0.579-0.042-0.744-0.187
			c-0.124-0.103-0.186-0.247-0.186-0.433c0-0.206,0.066-0.355,0.201-0.448c0.134-0.094,0.879-0.25,2.232-0.472
			c1.354-0.222,2.13-0.407,2.326-0.559c0.196-0.15,0.326-0.487,0.388-1.011c0.083-0.725,0.124-2.766,0.124-6.125l-0.031-6.94
			l0.094-7.182l-0.031-7.182l0.093-3.531c0-0.704-0.113-1.211-0.341-1.524c-0.228-0.312-0.713-0.619-1.458-0.92
			C147.707,4.012,146.942,3.69,146.528,3.489z"/>
		<path fill="#FFFFFF" d="M164.792,11.063l0.962,0.03l0.124,2.867l-0.062,3.712c0.393,0.02,0.641,0.03,0.745,0.03
			c0.537,0,1.561-0.04,3.07-0.121c0.971-0.06,1.901-0.09,2.791-0.09c0.413,0,1.033,0.01,1.86,0.03
			c0.041,0.402,0.062,0.724,0.062,0.965c0,0.262-0.062,0.674-0.187,1.237h-0.527l-4.807,0.151l-2.388,0.061l-0.559,0.06
			c-0.166,0.503-0.248,1.086-0.248,1.75l0.093,4.526l-0.062,7.966c0,2.093,0.278,3.48,0.837,4.164
			c0.537,0.705,1.344,1.057,2.419,1.057c0.537,0,1.551-0.161,3.039-0.483c0.455-0.101,1.064-0.432,1.83-0.995h0.279
			c0.186,0,0.336,0.056,0.449,0.166s0.171,0.256,0.171,0.438l-0.031,0.211c-0.889,0.945-1.907,1.635-3.055,2.067
			c-1.147,0.432-2.672,0.648-4.574,0.648c-1.345,0-2.455-0.302-3.334-0.905s-1.442-1.317-1.69-2.143
			c-0.248-0.824-0.372-2.625-0.372-5.401l0.124-6.789l-0.03-3.259v-1.207c0-0.563-0.021-1.126-0.062-1.689l-0.527-0.03l-2.543,0.09
			l-0.248,0.03c-0.228,0-0.398-0.05-0.512-0.151c-0.114-0.101-0.171-0.221-0.171-0.362c0-0.241,0.078-0.438,0.233-0.588
			c0.154-0.151,0.625-0.387,1.41-0.709c0.538-0.221,1.163-0.638,1.877-1.252c0.713-0.613,1.317-1.292,1.814-2.037
			c0.248-0.402,0.599-1.167,1.054-2.293C164.379,11.988,164.627,11.405,164.792,11.063z"/>
		<path fill="#FFFFFF" d="M173.875,28.746c0-1.368,0.295-2.831,0.884-4.391c0.59-1.559,1.483-2.957,2.683-4.194
			s2.471-2.157,3.814-2.761c1.882-0.845,4.177-1.268,6.885-1.268c3.866,0,7.097,1.288,9.691,3.862
			c2.595,2.576,3.893,5.673,3.893,9.294c0,3.219-1.359,6.09-4.078,8.614c-2.719,2.525-6.156,3.787-10.312,3.787
			c-2.564,0-4.983-0.653-7.257-1.961c-1.696-0.985-3.153-2.444-4.373-4.376C174.484,33.423,173.875,31.22,173.875,28.746z
			 M187.598,40.514c1.574,0,3.091-0.412,4.551-1.237c1.461-0.824,2.625-2.146,3.495-3.968c0.87-1.82,1.305-3.927,1.305-6.321
			c0-1.569-0.337-3.39-1.01-5.462c-0.673-2.072-1.708-3.626-3.106-4.662c-1.397-1.036-3.039-1.554-4.924-1.554
			c-1.367,0-2.76,0.312-4.179,0.936c-1.418,0.624-2.619,1.821-3.603,3.591c-0.984,1.771-1.476,4.285-1.476,7.544
			c0,3.662,0.854,6.432,2.562,8.313C182.923,39.573,185.051,40.514,187.598,40.514z"/>
	</g>
</g>
</svg>
